<mxfile host="app.diagrams.net" modified="2021-08-10T15:30:49.400Z" agent="5.0 (Macintosh; Intel Mac OS X 10_15_7) AppleWebKit/537.36 (KHTML, like Gecko) Chrome/92.0.4515.107 Safari/537.36" etag="WH9Z-PGH96OMHgXAzmkk" version="14.9.2" type="github">
  <diagram id="DyJlHRhbyrskVXWGQtNB" name="MultiCloud">
    <mxGraphModel dx="1808" dy="1178" grid="1" gridSize="10" guides="1" tooltips="1" connect="1" arrows="1" fold="1" page="1" pageScale="1" pageWidth="1654" pageHeight="1169" math="0" shadow="0">
      <root>
        <mxCell id="JwIiYUSKZfyYXH6TkASV-0" />
        <mxCell id="JwIiYUSKZfyYXH6TkASV-1" parent="JwIiYUSKZfyYXH6TkASV-0" />
        <mxCell id="l-7_uhUUhIgSXyOGyoL8-7" style="edgeStyle=orthogonalEdgeStyle;rounded=0;orthogonalLoop=1;jettySize=auto;html=1;exitX=1;exitY=0.5;exitDx=0;exitDy=0;entryX=0;entryY=0.5;entryDx=0;entryDy=0;verticalAlign=middle;" edge="1" parent="JwIiYUSKZfyYXH6TkASV-1" source="JwIiYUSKZfyYXH6TkASV-2" target="l-7_uhUUhIgSXyOGyoL8-0">
          <mxGeometry relative="1" as="geometry" />
        </mxCell>
        <mxCell id="JwIiYUSKZfyYXH6TkASV-2" value="Internet" style="aspect=fixed;perimeter=ellipsePerimeter;html=1;align=center;shadow=0;dashed=0;spacingTop=3;image;image=img/lib/active_directory/internet_cloud.svg;" vertex="1" parent="JwIiYUSKZfyYXH6TkASV-1">
          <mxGeometry x="90" y="130" width="177.78" height="112" as="geometry" />
        </mxCell>
        <mxCell id="l-7_uhUUhIgSXyOGyoL8-26" style="edgeStyle=orthogonalEdgeStyle;rounded=0;orthogonalLoop=1;jettySize=auto;html=1;fontSize=16;verticalAlign=middle;" edge="1" parent="JwIiYUSKZfyYXH6TkASV-1" source="JwIiYUSKZfyYXH6TkASV-7" target="l-7_uhUUhIgSXyOGyoL8-16">
          <mxGeometry relative="1" as="geometry" />
        </mxCell>
        <mxCell id="l-7_uhUUhIgSXyOGyoL8-27" style="edgeStyle=orthogonalEdgeStyle;rounded=0;orthogonalLoop=1;jettySize=auto;html=1;fontSize=16;verticalAlign=middle;" edge="1" parent="JwIiYUSKZfyYXH6TkASV-1" source="JwIiYUSKZfyYXH6TkASV-7" target="l-7_uhUUhIgSXyOGyoL8-17">
          <mxGeometry relative="1" as="geometry" />
        </mxCell>
        <mxCell id="JwIiYUSKZfyYXH6TkASV-7" value="Load Balance 4 Layer" style="aspect=fixed;html=1;points=[];align=center;image;fontSize=12;image=img/lib/azure2/networking/Load_Balancers.svg;" vertex="1" parent="JwIiYUSKZfyYXH6TkASV-1">
          <mxGeometry x="764" y="370" width="72" height="72" as="geometry" />
        </mxCell>
        <mxCell id="l-7_uhUUhIgSXyOGyoL8-6" value="" style="group" vertex="1" connectable="0" parent="JwIiYUSKZfyYXH6TkASV-1">
          <mxGeometry x="500" y="120" width="620" height="160" as="geometry" />
        </mxCell>
        <mxCell id="l-7_uhUUhIgSXyOGyoL8-0" value="" style="rounded=1;whiteSpace=wrap;html=1;fillColor=#F0F0F0;strokeColor=#E6E6E6;strokeWidth=2;" vertex="1" parent="l-7_uhUUhIgSXyOGyoL8-6">
          <mxGeometry width="600" height="160" as="geometry" />
        </mxCell>
        <mxCell id="JwIiYUSKZfyYXH6TkASV-3" value="" style="aspect=fixed;html=1;points=[];align=center;image;fontSize=12;image=img/lib/azure2/networking/DNS_Zones.svg;" vertex="1" parent="l-7_uhUUhIgSXyOGyoL8-6">
          <mxGeometry x="70" y="48" width="64" height="64" as="geometry" />
        </mxCell>
        <mxCell id="JwIiYUSKZfyYXH6TkASV-4" value="DDoS Protection" style="aspect=fixed;html=1;points=[];align=center;image;fontSize=12;image=img/lib/azure2/networking/DDoS_Protection_Plans.svg;labelBackgroundColor=none;" vertex="1" parent="l-7_uhUUhIgSXyOGyoL8-6">
          <mxGeometry x="200" y="48" width="52.71" height="64" as="geometry" />
        </mxCell>
        <mxCell id="l-7_uhUUhIgSXyOGyoL8-2" value="" style="edgeStyle=orthogonalEdgeStyle;rounded=0;orthogonalLoop=1;jettySize=auto;html=1;" edge="1" parent="l-7_uhUUhIgSXyOGyoL8-6" source="JwIiYUSKZfyYXH6TkASV-3" target="JwIiYUSKZfyYXH6TkASV-4">
          <mxGeometry relative="1" as="geometry" />
        </mxCell>
        <mxCell id="JwIiYUSKZfyYXH6TkASV-6" value="WAF" style="aspect=fixed;html=1;points=[];align=center;image;fontSize=12;image=img/lib/azure2/networking/Web_Application_Firewall_Policies_WAF.svg;labelBackgroundColor=none;" vertex="1" parent="l-7_uhUUhIgSXyOGyoL8-6">
          <mxGeometry x="460" y="48" width="64" height="64" as="geometry" />
        </mxCell>
        <mxCell id="l-7_uhUUhIgSXyOGyoL8-4" value="" style="edgeStyle=orthogonalEdgeStyle;rounded=0;orthogonalLoop=1;jettySize=auto;html=1;" edge="1" parent="l-7_uhUUhIgSXyOGyoL8-6" source="JwIiYUSKZfyYXH6TkASV-9" target="JwIiYUSKZfyYXH6TkASV-6">
          <mxGeometry relative="1" as="geometry" />
        </mxCell>
        <mxCell id="JwIiYUSKZfyYXH6TkASV-9" value="CDN" style="aspect=fixed;html=1;points=[];align=center;image;fontSize=12;image=img/lib/azure2/networking/CDN_Profiles.svg;labelBackgroundColor=none;" vertex="1" parent="l-7_uhUUhIgSXyOGyoL8-6">
          <mxGeometry x="320" y="60" width="68" height="40" as="geometry" />
        </mxCell>
        <mxCell id="l-7_uhUUhIgSXyOGyoL8-3" value="" style="edgeStyle=orthogonalEdgeStyle;rounded=0;orthogonalLoop=1;jettySize=auto;html=1;" edge="1" parent="l-7_uhUUhIgSXyOGyoL8-6" source="JwIiYUSKZfyYXH6TkASV-4" target="JwIiYUSKZfyYXH6TkASV-9">
          <mxGeometry relative="1" as="geometry" />
        </mxCell>
        <mxCell id="l-7_uhUUhIgSXyOGyoL8-9" value="" style="aspect=fixed;html=1;points=[];align=center;image;fontSize=12;image=img/lib/azure2/security/Security_Center.svg;rounded=1;labelBackgroundColor=none;strokeColor=#E6E6E6;strokeWidth=2;fillColor=#F0F0F0;" vertex="1" parent="l-7_uhUUhIgSXyOGyoL8-6">
          <mxGeometry x="10" y="4.289999999999999" width="36" height="43.71" as="geometry" />
        </mxCell>
        <mxCell id="l-7_uhUUhIgSXyOGyoL8-10" value="Security Control" style="text;html=1;strokeColor=none;fillColor=none;align=center;verticalAlign=middle;whiteSpace=wrap;rounded=0;labelBackgroundColor=none;fontSize=16;fontStyle=1" vertex="1" parent="l-7_uhUUhIgSXyOGyoL8-6">
          <mxGeometry x="60" y="4.29" width="134" height="20" as="geometry" />
        </mxCell>
        <mxCell id="l-7_uhUUhIgSXyOGyoL8-11" style="edgeStyle=orthogonalEdgeStyle;rounded=0;orthogonalLoop=1;jettySize=auto;html=1;fontSize=16;verticalAlign=middle;" edge="1" parent="JwIiYUSKZfyYXH6TkASV-1" source="JwIiYUSKZfyYXH6TkASV-6" target="JwIiYUSKZfyYXH6TkASV-7">
          <mxGeometry relative="1" as="geometry">
            <Array as="points">
              <mxPoint x="992" y="330" />
              <mxPoint x="800" y="330" />
            </Array>
          </mxGeometry>
        </mxCell>
        <mxCell id="l-7_uhUUhIgSXyOGyoL8-44" value="" style="rounded=0;whiteSpace=wrap;html=1;labelBackgroundColor=none;fontSize=16;strokeWidth=2;verticalAlign=middle;strokeColor=#808080;dashed=1;fillColor=none;" vertex="1" parent="JwIiYUSKZfyYXH6TkASV-1">
          <mxGeometry x="94.5" y="420" width="650" height="688" as="geometry" />
        </mxCell>
        <mxCell id="l-7_uhUUhIgSXyOGyoL8-45" value="" style="group" vertex="1" connectable="0" parent="JwIiYUSKZfyYXH6TkASV-1">
          <mxGeometry x="160" y="470" width="519" height="618" as="geometry" />
        </mxCell>
        <mxCell id="l-7_uhUUhIgSXyOGyoL8-37" value="" style="rounded=1;whiteSpace=wrap;html=1;labelBackgroundColor=none;fontSize=16;strokeWidth=2;fillColor=#F0F0F0;verticalAlign=middle;strokeColor=#CCCCCC;" vertex="1" parent="l-7_uhUUhIgSXyOGyoL8-45">
          <mxGeometry x="269" width="250" height="618" as="geometry" />
        </mxCell>
        <mxCell id="l-7_uhUUhIgSXyOGyoL8-14" value="" style="rounded=1;whiteSpace=wrap;html=1;labelBackgroundColor=none;fontSize=16;strokeWidth=2;fillColor=#F0F0F0;verticalAlign=middle;strokeColor=#CCCCCC;" vertex="1" parent="l-7_uhUUhIgSXyOGyoL8-45">
          <mxGeometry width="250" height="618" as="geometry" />
        </mxCell>
        <mxCell id="l-7_uhUUhIgSXyOGyoL8-16" value="Load Balance 7 Layer" style="aspect=fixed;html=1;points=[];align=center;image;fontSize=12;image=img/lib/azure2/networking/Load_Balancers.svg;" vertex="1" parent="l-7_uhUUhIgSXyOGyoL8-45">
          <mxGeometry x="89.99999999999997" y="28" width="72" height="72" as="geometry" />
        </mxCell>
        <mxCell id="l-7_uhUUhIgSXyOGyoL8-17" value="Load Balance 7 Layer" style="aspect=fixed;html=1;points=[];align=center;image;fontSize=12;image=img/lib/azure2/networking/Load_Balancers.svg;" vertex="1" parent="l-7_uhUUhIgSXyOGyoL8-45">
          <mxGeometry x="358" y="28" width="72" height="72" as="geometry" />
        </mxCell>
        <mxCell id="l-7_uhUUhIgSXyOGyoL8-18" value="Nacos" style="aspect=fixed;html=1;points=[];align=center;image;fontSize=12;image=img/lib/azure2/containers/Container_Registries.svg;rounded=1;dashed=1;labelBackgroundColor=none;strokeColor=#666666;strokeWidth=2;fillColor=#F0F0F0;" vertex="1" parent="l-7_uhUUhIgSXyOGyoL8-45">
          <mxGeometry x="24" y="475.5" width="68" height="61" as="geometry" />
        </mxCell>
        <mxCell id="l-7_uhUUhIgSXyOGyoL8-19" value="MySQL PaaS" style="aspect=fixed;html=1;points=[];align=center;image;fontSize=12;image=img/lib/azure2/databases/Azure_Database_MySQL_Server.svg;rounded=1;dashed=1;labelBackgroundColor=none;strokeColor=#666666;strokeWidth=2;fillColor=#F0F0F0;" vertex="1" parent="l-7_uhUUhIgSXyOGyoL8-45">
          <mxGeometry x="172" y="474" width="48" height="64" as="geometry" />
        </mxCell>
        <mxCell id="l-7_uhUUhIgSXyOGyoL8-22" value="Kubernates" style="aspect=fixed;html=1;points=[];align=center;image;fontSize=12;image=img/lib/azure2/containers/Kubernetes_Services.svg;rounded=1;dashed=1;labelBackgroundColor=none;strokeColor=#666666;strokeWidth=2;fillColor=#F0F0F0;" vertex="1" parent="l-7_uhUUhIgSXyOGyoL8-45">
          <mxGeometry x="24" y="222.5" width="68" height="60" as="geometry" />
        </mxCell>
        <mxCell id="l-7_uhUUhIgSXyOGyoL8-28" style="edgeStyle=orthogonalEdgeStyle;rounded=0;orthogonalLoop=1;jettySize=auto;html=1;fontSize=16;verticalAlign=middle;" edge="1" parent="l-7_uhUUhIgSXyOGyoL8-45" source="l-7_uhUUhIgSXyOGyoL8-16" target="l-7_uhUUhIgSXyOGyoL8-22">
          <mxGeometry as="geometry">
            <Array as="points">
              <mxPoint x="126" y="168" />
              <mxPoint x="56" y="168" />
            </Array>
          </mxGeometry>
        </mxCell>
        <mxCell id="l-7_uhUUhIgSXyOGyoL8-23" value="Kubernates" style="aspect=fixed;html=1;points=[];align=center;image;fontSize=12;image=img/lib/azure2/containers/Container_Instances.svg;rounded=1;dashed=1;labelBackgroundColor=none;strokeColor=#666666;strokeWidth=2;fillColor=#F0F0F0;" vertex="1" parent="l-7_uhUUhIgSXyOGyoL8-45">
          <mxGeometry x="164" y="218" width="64" height="69" as="geometry" />
        </mxCell>
        <mxCell id="l-7_uhUUhIgSXyOGyoL8-29" style="edgeStyle=orthogonalEdgeStyle;rounded=0;orthogonalLoop=1;jettySize=auto;html=1;fontSize=16;verticalAlign=middle;" edge="1" parent="l-7_uhUUhIgSXyOGyoL8-45" source="l-7_uhUUhIgSXyOGyoL8-16" target="l-7_uhUUhIgSXyOGyoL8-23">
          <mxGeometry as="geometry">
            <Array as="points">
              <mxPoint x="126" y="168" />
              <mxPoint x="194" y="168" />
            </Array>
          </mxGeometry>
        </mxCell>
        <mxCell id="l-7_uhUUhIgSXyOGyoL8-30" value="" style="edgeStyle=orthogonalEdgeStyle;rounded=0;orthogonalLoop=1;jettySize=auto;html=1;fontSize=16;verticalAlign=middle;" edge="1" parent="l-7_uhUUhIgSXyOGyoL8-45" source="l-7_uhUUhIgSXyOGyoL8-24" target="l-7_uhUUhIgSXyOGyoL8-23">
          <mxGeometry as="geometry" />
        </mxCell>
        <mxCell id="l-7_uhUUhIgSXyOGyoL8-24" value="VM" style="aspect=fixed;html=1;points=[];align=center;image;fontSize=12;image=img/lib/azure2/compute/VM_Scale_Sets.svg;rounded=1;dashed=1;labelBackgroundColor=none;strokeColor=#666666;strokeWidth=2;fillColor=#F0F0F0;" vertex="1" parent="l-7_uhUUhIgSXyOGyoL8-45">
          <mxGeometry x="162" y="338" width="68" height="68" as="geometry" />
        </mxCell>
        <mxCell id="l-7_uhUUhIgSXyOGyoL8-31" style="edgeStyle=orthogonalEdgeStyle;rounded=0;orthogonalLoop=1;jettySize=auto;html=1;fontSize=16;verticalAlign=middle;" edge="1" parent="l-7_uhUUhIgSXyOGyoL8-45" target="l-7_uhUUhIgSXyOGyoL8-33">
          <mxGeometry as="geometry">
            <mxPoint x="393" y="99.5" as="sourcePoint" />
            <Array as="points">
              <mxPoint x="393" y="167.5" />
              <mxPoint x="323" y="167.5" />
            </Array>
          </mxGeometry>
        </mxCell>
        <mxCell id="l-7_uhUUhIgSXyOGyoL8-32" style="edgeStyle=orthogonalEdgeStyle;rounded=0;orthogonalLoop=1;jettySize=auto;html=1;fontSize=16;verticalAlign=middle;" edge="1" parent="l-7_uhUUhIgSXyOGyoL8-45" target="l-7_uhUUhIgSXyOGyoL8-34">
          <mxGeometry as="geometry">
            <mxPoint x="393" y="99.5" as="sourcePoint" />
            <Array as="points">
              <mxPoint x="393" y="167.5" />
              <mxPoint x="461" y="167.5" />
            </Array>
          </mxGeometry>
        </mxCell>
        <mxCell id="l-7_uhUUhIgSXyOGyoL8-33" value="Kubernates" style="aspect=fixed;html=1;points=[];align=center;image;fontSize=12;image=img/lib/azure2/containers/Kubernetes_Services.svg;rounded=1;dashed=1;labelBackgroundColor=none;strokeColor=#666666;strokeWidth=2;fillColor=#F0F0F0;" vertex="1" parent="l-7_uhUUhIgSXyOGyoL8-45">
          <mxGeometry x="291" y="222" width="68" height="60" as="geometry" />
        </mxCell>
        <mxCell id="l-7_uhUUhIgSXyOGyoL8-34" value="Kubernates" style="aspect=fixed;html=1;points=[];align=center;image;fontSize=12;image=img/lib/azure2/containers/Container_Instances.svg;rounded=1;dashed=1;labelBackgroundColor=none;strokeColor=#666666;strokeWidth=2;fillColor=#F0F0F0;" vertex="1" parent="l-7_uhUUhIgSXyOGyoL8-45">
          <mxGeometry x="431" y="217.5" width="64" height="69" as="geometry" />
        </mxCell>
        <mxCell id="l-7_uhUUhIgSXyOGyoL8-35" value="" style="edgeStyle=orthogonalEdgeStyle;rounded=0;orthogonalLoop=1;jettySize=auto;html=1;fontSize=16;verticalAlign=middle;" edge="1" parent="l-7_uhUUhIgSXyOGyoL8-45" source="l-7_uhUUhIgSXyOGyoL8-36" target="l-7_uhUUhIgSXyOGyoL8-34">
          <mxGeometry as="geometry" />
        </mxCell>
        <mxCell id="l-7_uhUUhIgSXyOGyoL8-36" value="VM" style="aspect=fixed;html=1;points=[];align=center;image;fontSize=12;image=img/lib/azure2/compute/VM_Scale_Sets.svg;rounded=1;dashed=1;labelBackgroundColor=none;strokeColor=#666666;strokeWidth=2;fillColor=#F0F0F0;" vertex="1" parent="l-7_uhUUhIgSXyOGyoL8-45">
          <mxGeometry x="429" y="337.5" width="68" height="68" as="geometry" />
        </mxCell>
        <mxCell id="l-7_uhUUhIgSXyOGyoL8-38" value="MySQL PaaS&lt;br&gt;(Silver)" style="aspect=fixed;html=1;points=[];align=center;image;fontSize=12;image=img/lib/azure2/databases/Azure_Database_MySQL_Server.svg;rounded=1;labelBackgroundColor=none;strokeColor=#666666;strokeWidth=2;fillColor=#F0F0F0;" vertex="1" parent="l-7_uhUUhIgSXyOGyoL8-45">
          <mxGeometry x="301" y="474" width="48" height="64" as="geometry" />
        </mxCell>
        <mxCell id="l-7_uhUUhIgSXyOGyoL8-40" value="" style="edgeStyle=orthogonalEdgeStyle;rounded=0;orthogonalLoop=1;jettySize=auto;html=1;fontSize=16;verticalAlign=middle;" edge="1" parent="l-7_uhUUhIgSXyOGyoL8-45" source="l-7_uhUUhIgSXyOGyoL8-19" target="l-7_uhUUhIgSXyOGyoL8-38">
          <mxGeometry as="geometry" />
        </mxCell>
        <mxCell id="l-7_uhUUhIgSXyOGyoL8-41" value="SH2" style="text;html=1;strokeColor=none;fillColor=none;align=center;verticalAlign=middle;whiteSpace=wrap;rounded=0;labelBackgroundColor=none;fontSize=16;fontStyle=1" vertex="1" parent="l-7_uhUUhIgSXyOGyoL8-45">
          <mxGeometry x="10" y="18" width="40" height="20" as="geometry" />
        </mxCell>
        <mxCell id="l-7_uhUUhIgSXyOGyoL8-42" value="BJ2" style="text;html=1;strokeColor=none;fillColor=none;align=center;verticalAlign=middle;whiteSpace=wrap;rounded=0;labelBackgroundColor=none;fontSize=16;fontStyle=1" vertex="1" parent="l-7_uhUUhIgSXyOGyoL8-45">
          <mxGeometry x="280" y="18" width="40" height="20" as="geometry" />
        </mxCell>
        <mxCell id="l-7_uhUUhIgSXyOGyoL8-46" value="Azure" style="text;html=1;strokeColor=none;fillColor=none;align=center;verticalAlign=middle;whiteSpace=wrap;rounded=0;dashed=1;labelBackgroundColor=none;fontSize=17;fontStyle=1" vertex="1" parent="JwIiYUSKZfyYXH6TkASV-1">
          <mxGeometry x="70" y="440" width="40" height="20" as="geometry" />
        </mxCell>
      </root>
    </mxGraphModel>
  </diagram>
</mxfile>
